<svg width="52" height="14" viewBox="0 0 52 14" fill="none" xmlns="http://www.w3.org/2000/svg">
<path d="M0.588 5.128C0.588 4.12933 0.784 3.24733 1.176 2.482C1.57733 1.71667 2.13267 1.11933 2.842 0.69C3.55133 0.251333 4.36333 0.0319998 5.278 0.0319998C6.10867 0.0319998 6.818 0.181333 7.406 0.48C7.994 0.769333 8.46533 1.17067 8.82 1.684C9.184 2.19733 9.43133 2.78533 9.562 3.448H7.588C7.46667 2.92533 7.21 2.51 6.818 2.202C6.426 1.894 5.91267 1.74 5.278 1.74C4.73667 1.74 4.256 1.88 3.836 2.16C3.42533 2.43067 3.10333 2.818 2.87 3.322C2.63667 3.826 2.52 4.428 2.52 5.128C2.52 5.81867 2.63667 6.42067 2.87 6.934C3.10333 7.438 3.42533 7.83 3.836 8.11C4.256 8.38067 4.73667 8.516 5.278 8.516C5.91267 8.516 6.43067 8.36667 6.832 8.068C7.24267 7.76933 7.504 7.37267 7.616 6.878H9.562C9.43133 7.522 9.184 8.096 8.82 8.6C8.46533 9.104 7.994 9.50067 7.406 9.79C6.818 10.0793 6.10867 10.224 5.278 10.224C4.36333 10.224 3.55133 10.0093 2.842 9.58C2.13267 9.14133 1.57733 8.53933 1.176 7.774C0.784 6.99933 0.588 6.11733 0.588 5.128ZM4.046 13.542V12.478H4.802C5.26867 12.478 5.502 12.324 5.502 12.016C5.502 11.7267 5.292 11.582 4.872 11.582H4.228L4.858 9.58H5.936L5.544 10.672C5.92667 10.6813 6.244 10.8167 6.496 11.078C6.75733 11.3393 6.888 11.666 6.888 12.058C6.888 12.5153 6.734 12.8747 6.426 13.136C6.12733 13.4067 5.70733 13.542 5.166 13.542H4.046ZM15.5922 10.224C14.8735 10.224 14.2108 10.098 13.6042 9.846C13.0068 9.594 12.4888 9.23933 12.0502 8.782C11.6115 8.32467 11.2708 7.788 11.0282 7.172C10.7855 6.54667 10.6642 5.86533 10.6642 5.128C10.6642 4.39067 10.7855 3.714 11.0282 3.098C11.2708 2.47267 11.6115 1.93133 12.0502 1.474C12.4888 1.01667 13.0068 0.661999 13.6042 0.409999C14.2108 0.158 14.8735 0.0319998 15.5922 0.0319998C16.3108 0.0319998 16.9688 0.158 17.5662 0.409999C18.1728 0.661999 18.6955 1.01667 19.1342 1.474C19.5822 1.93133 19.9275 2.47267 20.1702 3.098C20.4128 3.714 20.5342 4.39067 20.5342 5.128C20.5342 5.86533 20.4128 6.54667 20.1702 7.172C19.9275 7.788 19.5822 8.32467 19.1342 8.782C18.6955 9.23933 18.1728 9.594 17.5662 9.846C16.9688 10.098 16.3108 10.224 15.5922 10.224ZM15.5922 8.516C16.1802 8.516 16.6982 8.376 17.1462 8.096C17.6035 7.80667 17.9582 7.40533 18.2102 6.892C18.4715 6.37867 18.6022 5.79067 18.6022 5.128C18.6022 4.456 18.4715 3.868 18.2102 3.364C17.9582 2.85067 17.6035 2.454 17.1462 2.174C16.6982 1.88467 16.1802 1.74 15.5922 1.74C15.0135 1.74 14.4955 1.88467 14.0382 2.174C13.5902 2.454 13.2355 2.85067 12.9742 3.364C12.7222 3.868 12.5962 4.456 12.5962 5.128C12.5962 5.79067 12.7222 6.37867 12.9742 6.892C13.2355 7.40533 13.5902 7.80667 14.0382 8.096C14.4955 8.376 15.0135 8.516 15.5922 8.516ZM21.711 5.128C21.711 4.12933 21.907 3.24733 22.299 2.482C22.7004 1.71667 23.2557 1.11933 23.965 0.69C24.6744 0.251333 25.4864 0.0319998 26.401 0.0319998C27.2317 0.0319998 27.941 0.181333 28.529 0.48C29.117 0.769333 29.5884 1.17067 29.943 1.684C30.307 2.19733 30.5544 2.78533 30.685 3.448H28.711C28.5897 2.92533 28.333 2.51 27.941 2.202C27.549 1.894 27.0357 1.74 26.401 1.74C25.8597 1.74 25.379 1.88 24.959 2.16C24.5484 2.43067 24.2264 2.818 23.993 3.322C23.7597 3.826 23.643 4.428 23.643 5.128C23.643 5.81867 23.7597 6.42067 23.993 6.934C24.2264 7.438 24.5484 7.83 24.959 8.11C25.379 8.38067 25.8597 8.516 26.401 8.516C27.0357 8.516 27.5537 8.36667 27.955 8.068C28.3657 7.76933 28.627 7.37267 28.739 6.878H30.685C30.5544 7.522 30.307 8.096 29.943 8.6C29.5884 9.104 29.117 9.50067 28.529 9.79C27.941 10.0793 27.2317 10.224 26.401 10.224C25.4864 10.224 24.6744 10.0093 23.965 9.58C23.2557 9.14133 22.7004 8.53933 22.299 7.774C21.907 6.99933 21.711 6.11733 21.711 5.128ZM36.4072 10.224C35.4832 10.224 34.7039 10.042 34.0692 9.678C33.4439 9.314 32.9679 8.80067 32.6412 8.138C32.3239 7.47533 32.1652 6.696 32.1652 5.8V0.255999H34.0692V5.576C34.0692 6.48133 34.2512 7.2 34.6152 7.732C34.9886 8.25467 35.5859 8.516 36.4072 8.516C37.2379 8.516 37.8352 8.25467 38.1992 7.732C38.5632 7.2 38.7452 6.48133 38.7452 5.576V0.255999H40.6492V5.8C40.6492 6.696 40.4859 7.47533 40.1592 8.138C39.8419 8.80067 39.3659 9.314 38.7312 9.678C38.1059 10.042 37.3312 10.224 36.4072 10.224ZM42.7232 10V0.255999H44.6272V4.204L48.5332 0.255999H50.8292L46.1952 4.918L51.0672 10H48.5892L44.6272 5.856V10H42.7232Z" fill="white"/>
</svg>
